# xmcd
#
# Track frame offsets:
#	150
#	16550
#	37715
#	57035
#	77027
#	98955
#	111105
#
# Disc length: 2462 seconds
#
# Revision: 0
# Processed by: cddbd v1.5.1PL0 Copyright (c) Steve Scherf et al.
# Submitted via: EasyCDDAExtractor 8.0.0.2
#
DISCID=40099c07
DTITLE=Prince and The New Power Generation - Skin Tight
DYEAR=1991
DGENRE=Funk
TTITLE0=Strollin'
TTITLE1=Willing and Able
TTITLE2=Cream
TTITLE3=Jughead
TTITLE4=Alphabet St.
TTITLE5=Alphabet St.
TTITLE6=Partyman-Partyup
EXTD=
EXTT0=
EXTT1=
EXTT2=
EXTT3=
EXTT4=
EXTT5=
EXTT6=
PLAYORDER=
